<?xml version="1.0" encoding="utf-8"?>
<!-- Svg Vector Icons : http://www.onlinewebfonts.com/icon -->
<!DOCTYPE svg PUBLIC "-//W3C//DTD SVG 1.1//EN" "http://www.w3.org/Graphics/SVG/1.1/DTD/svg11.dtd">
<svg version="1.1" xmlns="http://www.w3.org/2000/svg" xmlns:xlink="http://www.w3.org/1999/xlink" x="0px" y="0px" viewBox="0 0 256 256" enable-background="new 0 0 256 256" xml:space="preserve">
<metadata> Svg Vector Icons : http://www.onlinewebfonts.com/icon </metadata>
<g><g><g><path fill="#000000" d="M19.2,23.4c-0.3,0.1-1.2,0.3-2,0.5c-1.9,0.4-5.6,3.8-6.5,5.9C10.1,31.2,10,48.9,10,132.2v100.7h118h118V132.1c0-91.4-0.1-100.9-0.8-102.5c-1.2-2.4-4.5-5.2-6.9-5.9c-1.4-0.4-35.5-0.6-110.3-0.5C68.4,23.1,19.5,23.2,19.2,23.4z M237.6,32.5c0.4,0.7,0.5,31.7,0.5,96.5v95.5H128H17.9V129c0-64.8,0.2-95.8,0.5-96.5c0.6-1,2.3-1,109.6-1C235.3,31.5,237,31.5,237.6,32.5z"/><path fill="#000000" d="M35,41.9c-1.9,2.1-0.5,5.3,2.3,5.3c2,0,3.3-1.2,3.3-3.1C40.6,41.2,36.9,39.8,35,41.9z"/><path fill="#000000" d="M48.5,41.7c-0.6,0.4-0.9,1.4-0.9,2.4c0,2.9,3.7,4.3,5.6,2.2C55.9,43.3,51.9,39.2,48.5,41.7z"/><path fill="#000000" d="M61.8,41.9c-1.1,1.2-1.2,2.7-0.1,4.2c1.2,1.8,4.4,1.4,5.5-0.6c0.7-1.3,0.7-1.6,0-2.9C66.1,40.8,63.1,40.3,61.8,41.9z"/><path fill="#000000" d="M32.2,57.3c-0.6,0.3-1.4,1.2-1.8,2c-0.8,1.9,0.1,4.3,1.9,5.1c1.9,0.8,189.4,0.8,191.3,0c2.9-1.4,2.9-5.9,0-7.2C221.9,56.4,33.9,56.4,32.2,57.3z"/><path fill="#000000" d="M35.7,78.3c-1.6,0.8-2.9,2.1-3.9,3.8l-1.6,2.5L30,144.2l-0.1,59.5l1.4,2.8c0.9,1.8,2.1,3.3,3.5,4.2l2.2,1.4l26.6,0.2c29.2,0.2,28.1,0.3,31.5-3c3.5-3.2,3.3,1.4,3.4-62.2c0.1-31.7,0-58.9-0.2-60.4c-0.4-3.1-1.7-5.4-4.6-7.7l-2-1.6l-26.9-0.2L38,77.1L35.7,78.3z M89.2,85.5c1,0.5,1,1.8,1,59.3c0,57.5,0,58.7-1,59.3c-0.7,0.3-9.5,0.5-25.1,0.5c-20,0-24.2-0.1-25.1-0.7c-1-0.7-1-1.9-1-59.1s0-58.3,1-59.1c0.9-0.6,5.1-0.7,25.1-0.7C79.8,85,88.6,85.2,89.2,85.5z"/><path fill="#000000" d="M116.7,78.1c-2.6,1.2-4.8,3.6-5.5,6.2c-0.4,1.3-0.5,6.5-0.4,14.6l0.2,12.6l1.6,2.3c0.9,1.2,2.6,2.8,3.9,3.5l2.3,1.2h49.3c55.3,0,51.7,0.2,55.2-3.8c2.6-2.9,2.8-4.8,2.7-18.1l-0.2-12l-1.6-2.5c-1-1.7-2.4-2.9-3.9-3.8l-2.3-1.2h-49.6C121.4,77.1,118.7,77.2,116.7,78.1z M216.9,85.7c0.9,0.7,1,1.5,1,12.1s-0.1,11.4-1,12.1c-0.9,0.6-8.3,0.7-48.6,0.7c-42.1,0-47.6-0.1-48.7-0.8c-1.2-0.8-1.2-1-1.2-11.9c0-9.6,0.1-11.2,0.9-12.1c0.8-0.9,3-0.9,48.7-0.9C208.6,85,216.1,85.1,216.9,85.7z"/><path fill="#000000" d="M118.6,124.3c-2.2,0.5-3.9,1.8-6,4.4l-1.6,2v14.1v14.1l1.6,2c2.2,2.7,3.8,3.9,6.3,4.4c3.2,0.8,96.2,0.7,99.2-0.1c3-0.7,6.6-4.1,7.4-7c0.7-2.7,0.7-24,0-26.6c-0.8-2.9-4.4-6.3-7.4-7C215.3,123.7,121.6,123.6,118.6,124.3z M217.2,133.1c0.6,0.6,0.7,3.3,0.7,11.7s-0.2,11.1-0.7,11.7c-0.6,0.8-4.7,0.9-49.1,0.9c-47.4,0-48.5,0-49-1c-0.3-0.6-0.5-5.3-0.5-11.6c0-6.3,0.2-11,0.5-11.6c0.5-1,1.6-1,49-1C212.5,132.2,216.6,132.2,217.2,133.1z"/><path fill="#000000" d="M116.4,172.2c-1.3,0.7-3,2.3-3.9,3.5l-1.6,2.3l-0.2,12.9c-0.2,10.9,0,13.3,0.7,15.2c1.1,2.7,3.7,5.1,6.4,5.9c1.4,0.4,16.8,0.5,51.6,0.4l49.6-0.2l2.2-1.5c1.4-0.9,2.7-2.5,3.5-4.1c1.3-2.6,1.3-2.9,1.3-14.2c0-6.5-0.3-12.5-0.6-13.6c-0.7-2.6-3.3-5.5-6-6.7c-2-0.9-4.8-1-51.4-1h-49.3L116.4,172.2z M216.9,179.6c0.9,0.7,1,1.5,1,12.1s-0.1,11.4-1,12.1c-0.9,0.6-8.4,0.7-48.8,0.7c-43.6,0-47.8-0.1-48.7-0.9c-0.8-0.8-0.9-1.8-0.9-12c0-11,0-11.2,1.2-12c1-0.7,6.6-0.8,48.7-0.8C208.6,178.9,216.1,179,216.9,179.6z"/></g></g></g>
</svg>