<?xml version="1.0" encoding="utf-8"?>
<!-- Svg Vector Icons : http://www.onlinewebfonts.com/icon -->
<!DOCTYPE svg PUBLIC "-//W3C//DTD SVG 1.1//EN" "http://www.w3.org/Graphics/SVG/1.1/DTD/svg11.dtd">
<svg version="1.1" xmlns="http://www.w3.org/2000/svg" xmlns:xlink="http://www.w3.org/1999/xlink" x="0px" y="0px" viewBox="0 0 256 256" enable-background="new 0 0 256 256" xml:space="preserve">
<metadata> Svg Vector Icons : http://www.onlinewebfonts.com/icon </metadata>
<g><g><g><path fill="#000000" d="M10,39.5v7.4h16h16l25.8,59l25.8,59h61.4h61.4v-7.4v-7.4h-56.6h-56.6l-25.8-59l-25.8-59H30.9H10V39.5z"/><path fill="#000000" d="M158.9,61.2c-34.3,0.2-65.3,0.5-68.8,0.5l-6.3,0.1l14.7,36.6l14.7,36.6h51.7h51.7l4.7-12c4.6-11.6,21.8-55.1,23.7-60.1l1-2.4l-12.4,0.1C226.9,60.9,193.2,61.1,158.9,61.2z"/><path fill="#000000" d="M115.1,180.4c-11.7,3.1-18.9,15.3-15.9,26.7c2.9,11,13.6,18.2,24.7,16.5c12-1.9,20.4-13.2,18.6-25C140.4,185.7,127.5,177.1,115.1,180.4z"/><path fill="#000000" d="M188.9,180.4c-11.7,3.1-18.9,15.3-15.9,26.7c2.9,11,13.6,18.2,24.7,16.5c12-1.9,20.4-13.2,18.6-25C214.2,185.7,201.2,177.1,188.9,180.4z"/></g></g></g>
</svg>