<?xml version="1.0" encoding="utf-8"?>
<!-- Svg Vector Icons : http://www.onlinewebfonts.com/icon -->
<!DOCTYPE svg PUBLIC "-//W3C//DTD SVG 1.1//EN" "http://www.w3.org/Graphics/SVG/1.1/DTD/svg11.dtd">
<svg version="1.1" xmlns="http://www.w3.org/2000/svg" xmlns:xlink="http://www.w3.org/1999/xlink" x="0px" y="0px" viewBox="0 0 256 256" enable-background="new 0 0 256 256" xml:space="preserve">
<metadata> Svg Vector Icons : http://www.onlinewebfonts.com/icon </metadata>
<g><g><path fill="#000000" d="M42.5,233l0.2,1.9l0.2-2.1C42.8,232.9,42.6,232.9,42.5,233z"/><path fill="#000000" d="M10,15.2v229.7h236V11.1C167.3,12.5,88.7,13.8,10,15.2z M242,236.9l-227.4,2.8L14.2,18.3L242,15.9V236.9z"/><path fill="#000000" d="M76.2,121.8c0,8.2,0,16.4,0,24.6c9.7,0,19.3,0,29,0c0-8.2,0-16.4,0-24.6C95.6,121.8,85.9,121.8,76.2,121.8z"/><path fill="#000000" d="M159,121.8c0,8.2,0,16.4,0,24.6c8.3,0,16.6,0,24.9,0c0-8.2,0-16.4,0-24.6C175.6,121.8,167.3,121.8,159,121.8z"/><path fill="#000000" d="M196.3,121.8c0,8.2,0,16.4,0,24.6c9.7,0,19.3,0,29,0c0-8.2,0-16.4,0-24.6C215.6,121.8,206,121.8,196.3,121.8z"/><path fill="#000000" d="M76.2,162.9c0,9.6,0,19.1,0,28.7c9.7,0,19.3,0,29,0c0-9.6,0-19.1,0-28.7C95.6,162.9,85.9,162.9,76.2,162.9z"/><path fill="#000000" d="M117.6,162.9c0,8.2,0,16.4,0,24.6c9.7,0,19.3,0,29,0c0-8.2,0-16.4,0-24.6C137,162.9,127.3,162.9,117.6,162.9z"/><path fill="#000000" d="M159,162.9c0,8.2,0,16.4,0,24.6c8.3,0,16.6,0,24.9,0c0-8.2,0-16.4,0-24.6C175.6,162.9,167.3,162.9,159,162.9z"/><path fill="#000000" d="M196.3,162.9c0,8.2,0,16.4,0,24.6c9.7,0,19.3,0,29,0c0-8.2,0-16.4,0-24.6C215.6,162.9,206,162.9,196.3,162.9z"/><path fill="#000000" d="M76.2,199.8c0,9.6,0,19.1,0,28.7c23.5,0,46.9,0,70.4,0c0-9.6,0-19.1,0-28.7C123.2,199.8,99.7,199.8,76.2,199.8z"/><path fill="#000000" d="M154.9,199.8c0,9.6,0,19.1,0,28.7c9.7,0,19.3,0,29,0c0-9.6,0-19.1,0-28.7C174.2,199.8,164.6,199.8,154.9,199.8z"/><path fill="#000000" d="M196.3,199.8c0,9.6,0,19.1,0,28.7c9.7,0,19.3,0,29,0c0-9.6,0-19.1,0-28.7C215.6,199.8,206,199.8,196.3,199.8z"/><path fill="#000000" d="M35,31.6l2,193.6l2.8-1.1l1.4-0.5L40,31.6H35z"/><path fill="#000000" d="M76.2,31.6v78.7h149V31.6H76.2z"/><path fill="#000000" d="M117.6,121.8h29v24.6h-29V121.8z"/></g></g>
</svg>