<?xml version="1.0" encoding="utf-8"?>
<!-- Svg Vector Icons : http://www.onlinewebfonts.com/icon -->
<!DOCTYPE svg PUBLIC "-//W3C//DTD SVG 1.1//EN" "http://www.w3.org/Graphics/SVG/1.1/DTD/svg11.dtd">
<svg version="1.1" xmlns="http://www.w3.org/2000/svg" xmlns:xlink="http://www.w3.org/1999/xlink" x="0px" y="0px" viewBox="0 0 256 256" enable-background="new 0 0 256 256" xml:space="preserve">
<metadata> Svg Vector Icons : http://www.onlinewebfonts.com/icon </metadata>
<g><g><g><path fill="#000000" d="M96.9,24.2v14.2H64.4H32v103.8V246h96h96V142.2V38.4h-32.5h-32.5V24.2V10H128H96.9V24.2z M144.1,46.2v20.7H128h-16.1V46.2V25.6H128h16.1V46.2z M96.9,67.7v14.2H128h31.1V67.7V53.4H184H209v88.8V231h-81H47v-88.8V53.4h24.9h24.9V67.7z"/><path fill="#000000" d="M109.1,117.1l-11.6,11.7l-11.5-11.5l-11.5-11.5l-5.2,5.3l-5.3,5.2l16.9,16.9L97.7,150l16.9-16.9l16.9-16.9l-5.4-5.4l-5.4-5.4L109.1,117.1z"/><path fill="#000000" d="M148.9,125.9v7.5H169h20.1v-7.5v-7.5H169h-20.1V125.9z"/><path fill="#000000" d="M69.3,173.6l-5.4,5.4l16.9,16.9l16.9,16.9l16.9-16.9l16.9-16.9l-5.4-5.4l-5.4-5.4l-11.5,11.5l-11.5,11.5l-11.5-11.5l-11.5-11.5L69.3,173.6z"/><path fill="#000000" d="M148.9,192.1v7.8H169h20.1v-7.8v-7.8H169h-20.1V192.1z"/></g></g></g>
</svg>