<?xml version="1.0" encoding="utf-8"?>
<!-- Svg Vector Icons : http://www.onlinewebfonts.com/icon -->
<!DOCTYPE svg PUBLIC "-//W3C//DTD SVG 1.1//EN" "http://www.w3.org/Graphics/SVG/1.1/DTD/svg11.dtd">
<svg version="1.1" xmlns="http://www.w3.org/2000/svg" xmlns:xlink="http://www.w3.org/1999/xlink" x="0px" y="0px" viewBox="0 0 256 256" enable-background="new 0 0 256 256" xml:space="preserve">
<metadata> Svg Vector Icons : http://www.onlinewebfonts.com/icon </metadata>
<g><g><path fill="#000000" d="M83.8,10h91.3c20.2,0,36.7,16.5,36.7,36.7v119.3c0,20.2-16.5,36.7-36.7,36.7H88.3L28.9,246h198.1l-59.2-42.9l-11.1,0l9.9,10l-77.8,0.3L99.9,203l49.4,0l-61.1-0.3h-4.5c-20.2,0-36.7-16.5-36.7-36.7V46.7C47.1,26.5,63.6,10,83.8,10L83.8,10z M50,242.3l158.7-0.7l-14-8.8L61,233.1L50,242.3L50,242.3z M70.2,227.6l116.5-0.5l-12.9-8.8l-93.7,0.1L70.2,227.6L70.2,227.6z M70.8,45.6c-6.9,0-12.5,5.7-12.5,12.5v45.9c0,6.9,5.7,12.5,12.5,12.5h114.9c6.9,0,12.5-5.7,12.5-12.5V58.1c0-6.9-5.7-12.5-12.5-12.5H70.8L70.8,45.6z M72.7,130.7c-8.4,0-15.3,6.8-15.3,15.3c0,8.4,6.8,15.2,15.3,15.2c8.4,0,15.3-6.8,15.3-15.2C87.9,137.6,81.1,130.7,72.7,130.7L72.7,130.7z M182.8,130.7c-8.4,0-15.3,6.8-15.3,15.3c0,8.4,6.8,15.2,15.3,15.2c8.4,0,15.3-6.8,15.3-15.2C198,137.6,191.2,130.7,182.8,130.7z"/></g></g>
</svg>